<?xml version="1.0" encoding="UTF-8"?>
<svg width="1200" height="424" viewBox="0 0 1200 424" xmlns="http://www.w3.org/2000/svg">
  <path id="25" d="M 1095,393.248 C 1088.911,390.206 1089.674,387.609 1099.042,379.500 C 1128.077,354.367 1147.163,318.045 1152.055,278.615 C 1153.636,265.869 1152.707,242.640 1150.103,229.818 C 1141.772,188.794 1114.533,149.529 1079.421,127.931 C 1070.799,122.627 1054.642,115.011 1045.826,112.095 C 1042.155,110.881 1038.726,109.351 1038.207,108.694 C 1037.688,108.037 1037.021,101.985 1036.725,95.245 C 1036.250,84.397 1036.397,82.732 1038.005,80.745 C 1038.005,80.745 1039.822,78.500 1039.822,78.500 C 1039.822,78.500 1082.661,78 1082.661,78 C 1082.661,78 1125.500,77.500 1125.500,77.500 C 1125.500,77.500 1126.041,50.500 1126.041,50.500 C 1126.339,35.650 1126.676,23.399 1126.791,23.276 C 1126.906,23.153 1128.423,22.316 1130.163,21.416 C 1134.236,19.310 1150.260,18.862 1152.199,20.800 C 1153.218,21.818 1153.500,29.779 1153.500,57.514 C 1153.500,90.166 1153.361,93.068 1151.716,94.714 C 1150.077,96.355 1146.525,96.541 1107.928,97 C 1072.053,97.427 1065.787,97.719 1064.978,99 C 1063.527,101.298 1063.585,101.352 1070.250,103.895 C 1077.650,106.718 1096.220,115.851 1102.071,119.545 C 1141.066,144.161 1168.966,185.060 1178.154,231.074 C 1181.084,245.748 1181.382,275.231 1178.746,289.500 C 1173.875,315.862 1162.099,342.835 1146.677,362.949 C 1140.656,370.802 1125.868,386.087 1119.650,390.884 C 1114.433,394.909 1114.141,395 1106.408,394.998 C 1100.883,394.997 1097.445,394.470 1095,393.248M 1113.185,390.104 C 1116.518,388.814 1130.794,375.241 1138.306,366.221 C 1165.870,333.122 1178.625,293.556 1175.862,249.720 C 1173.697,215.372 1161.604,185.779 1137.858,156.724 C 1120.654,135.674 1092.601,116.037 1069,108.524 C 1059.713,105.568 1058.789,104.657 1059.531,99.192 C 1060.768,90.074 1055.637,91 1104.937,91 C 1104.937,91 1148.738,91 1148.738,91 C 1148.738,91 1149.358,87.250 1149.358,87.250 C 1150.173,82.320 1150.164,52.862 1149.342,36.750 C 1149.342,36.750 1148.691,24 1148.691,24 C 1148.691,24 1142.846,24 1142.846,24 C 1142.846,24 1137,24 1137,24 C 1137,24 1137,52.990 1137,52.990 C 1137,52.990 1137,81.980 1137,81.980 C 1137,81.980 1091.750,82.240 1091.750,82.240 C 1091.750,82.240 1046.500,82.500 1046.500,82.500 C 1046.500,82.500 1046.500,93.860 1046.500,93.860 C 1046.500,93.860 1046.500,105.219 1046.500,105.219 C 1046.500,105.219 1057,108.941 1057,108.941 C 1102.184,124.957 1139.157,162.556 1154.980,208.581 C 1172.723,260.189 1163.605,316.127 1130.215,360.512 C 1123.687,369.189 1112.778,380.863 1106.634,385.744 C 1104.490,387.447 1103.069,389.302 1103.443,389.908 C 1104.259,391.228 1109.984,391.343 1113.185,390.104" stroke="#D53368" fill="#D53368" stroke-width="1"/>
  <path id="25" d="M 72,328.364 C 46.202,323.440 26.280,309.773 16.762,290.472 C 16.762,290.472 13.696,284.255 13.696,284.255 C 13.696,284.255 22.283,263.377 22.283,263.377 C 39.457,221.623 65.356,152.371 64.566,150.313 C 64.295,149.608 64.924,148.576 65.963,148.020 C 67.837,147.017 74,132.680 74,129.324 C 74,126.733 65.807,135.081 60.393,143.190 C 55.314,150.797 48.941,164.091 46.609,171.945 C 44.573,178.802 43.491,180 39.338,180 C 28.979,180 13.917,164.736 11.485,151.773 C 10.143,144.619 16.875,128.247 25.525,117.629 C 32.881,108.599 42.318,101.444 55.500,94.901 C 75.726,84.862 97.869,80.967 123.187,82.995 C 137.942,84.177 151,86.778 151,88.536 C 151,89.222 152.228,90.091 153.730,90.468 C 158.521,91.670 176.281,100.972 181.988,105.268 C 210.431,126.678 223.193,156.081 219.975,192.789 C 217.559,220.348 207.536,247.383 191.165,270.500 C 183.573,281.220 165.366,299.280 155.500,305.875 C 147.347,311.325 129.723,320.300 124.750,321.534 C 123.238,321.909 122,322.779 122,323.466 C 122,325.761 106.518,328.215 90,328.538 C 81.475,328.705 73.375,328.626 72,328.364M 105.940,322.452 C 131.606,317.583 151.480,306.652 172.083,286.071 C 190.137,268.036 201.548,249.740 209.236,226.500 C 214.492,210.611 216.378,198.986 216.295,183 C 216.190,162.813 212.882,149.929 203.853,134.554 C 198.429,125.318 181.920,108.923 172.482,103.400 C 138.568,83.555 90.734,82.053 55.562,99.728 C 37.179,108.966 21.881,126.177 17.427,142.631 C 15.771,148.751 15.767,149.419 17.362,154.479 C 19.434,161.051 26.265,168.964 33.403,173.058 C 39.309,176.445 40.837,176.666 41.656,174.250 C 44.578,165.633 50.690,151.659 54.124,145.740 C 60.262,135.161 78.218,117.885 80.600,120.267 C 81.389,121.056 79.604,126.388 68.297,157 C 51.938,201.291 33.942,247.681 24.387,270.190 C 21.424,277.169 19,283.525 19,284.314 C 19,287.162 24.499,295.491 30.763,302.131 C 41.140,313.131 51.977,319.207 66.980,322.434 C 75.896,324.352 95.874,324.362 105.940,322.452" stroke="#D53368" fill="#D53368" stroke-width="1"/>
  <path id="24" d="M 1103.443,389.908 C 1103.069,389.302 1104.490,387.447 1106.634,385.744 C 1123.444,372.388 1142.809,345.339 1151.898,322.521 C 1166.726,285.293 1167.793,245.849 1154.980,208.581 C 1139.157,162.556 1102.184,124.957 1057,108.941 C 1057,108.941 1046.500,105.219 1046.500,105.219 C 1046.500,105.219 1046.500,93.860 1046.500,93.860 C 1046.500,93.860 1046.500,82.500 1046.500,82.500 C 1046.500,82.500 1091.750,82.240 1091.750,82.240 C 1091.750,82.240 1137,81.980 1137,81.980 C 1137,81.980 1137,52.990 1137,52.990 C 1137,52.990 1137,24 1137,24 C 1137,24 1142.846,24 1142.846,24 C 1142.846,24 1148.691,24 1148.691,24 C 1148.691,24 1149.342,36.750 1149.342,36.750 C 1150.164,52.862 1150.173,82.320 1149.358,87.250 C 1149.358,87.250 1148.738,91 1148.738,91 C 1148.738,91 1104.937,91 1104.937,91 C 1055.637,91 1060.768,90.074 1059.531,99.192 C 1058.789,104.657 1059.713,105.568 1069,108.524 C 1092.601,116.037 1120.654,135.674 1137.858,156.724 C 1161.604,185.779 1173.697,215.372 1175.862,249.720 C 1178.625,293.556 1165.870,333.122 1138.306,366.221 C 1130.794,375.241 1116.518,388.814 1113.185,390.104 C 1109.984,391.343 1104.259,391.228 1103.443,389.908" stroke="#588BF7" fill="#588BF7" stroke-width="1"/>
  <path id="24" d="M 838.213,403.422 C 820.738,399.595 804,388.444 804,380.630 C 804,378.085 809.288,371 811.188,371 C 811.727,371 814.840,373.098 818.104,375.663 C 823.953,380.258 824.143,380.324 831.269,380.267 C 866.156,379.986 898.845,345.652 925.008,281.812 C 928.220,273.975 930.581,267.131 930.254,266.602 C 929.594,265.534 929.167,266.085 921.799,277.500 C 915.343,287.502 899.202,303.851 892.759,306.915 C 888.574,308.905 887.443,309.046 883.111,308.117 C 871.006,305.521 860.678,298.338 855.578,288.967 C 852.843,283.943 852.751,283.341 853.375,274.611 C 854.665,256.551 863.694,229.018 876.202,205 C 884.617,188.841 892.167,177.869 901.147,168.750 C 907.398,162.402 908.061,162 912.291,162 C 918.685,162 928.762,165.368 935.353,169.708 C 938.459,171.754 941,173.779 941,174.209 C 941,174.639 938.720,177.805 935.934,181.245 C 924.782,195.015 907.907,226.838 900.536,248 C 893.853,267.184 890.253,284 892.827,284 C 894.092,284 908.031,269.257 913.156,262.500 C 918.744,255.133 929.930,236.601 941.224,216 C 956.034,188.986 960.127,181.652 963.761,175.620 C 963.761,175.620 967.303,169.739 967.303,169.739 C 967.303,169.739 973.541,170.322 973.541,170.322 C 984.746,171.368 1001,178.531 1001,182.423 C 1001,183.153 998.924,188.194 996.386,193.625 C 986.868,213.994 977.604,237.158 970.840,257.500 C 953.547,309.506 943.048,332.009 924.364,357.119 C 897.203,393.622 867.169,409.764 838.213,403.422" stroke="#588BF7" fill="#588BF7" stroke-width="1"/>
  <path id="24" d="M 226,308.706 C 222.425,306.948 217.116,303.153 214.202,300.272 C 208.002,294.143 208.004,296.399 214.177,271.511 C 221.701,241.176 240.773,187.015 249.261,171.878 C 251.228,168.370 254.160,164.240 255.776,162.700 C 258.613,159.996 258.883,159.940 263.607,161.071 C 273.721,163.492 292,173.977 292,177.358 C 292,178.055 289.933,181.407 287.406,184.807 C 280.848,193.632 273.994,206.020 274.035,208.976 C 274.065,211.176 275.318,210.214 283.785,201.496 C 289.128,195.994 296.788,187.114 300.808,181.762 C 304.828,176.410 309.091,171.350 310.281,170.516 C 315.267,167.024 327.490,169.459 332.438,174.930 C 334.153,176.826 334.233,177.468 333.131,180.514 C 329.287,191.145 328.124,207.571 330.553,216.936 C 332.230,223.401 332.222,223.642 330.203,227.526 C 327.383,232.952 319.226,242 317.155,242 C 313.308,242 299.093,230.045 294.861,223.250 C 293.748,221.462 292.299,220 291.642,220 C 289.256,220 273.975,233.086 268.049,240.204 C 259.134,250.912 251.056,267.802 245.575,287.193 C 243.135,295.824 240.832,304.937 240.456,307.443 C 239.787,311.904 239.696,311.999 236.136,311.951 C 234.136,311.924 229.575,310.464 226,308.706" stroke="#588BF7" fill="#588BF7" stroke-width="1"/>
  <path id="24" d="M 66.980,322.434 C 51.977,319.207 41.140,313.131 30.763,302.131 C 24.499,295.491 19,287.162 19,284.314 C 19,283.525 21.424,277.169 24.387,270.190 C 33.942,247.681 51.938,201.291 68.297,157 C 79.604,126.388 81.389,121.056 80.600,120.267 C 78.218,117.885 60.262,135.161 54.124,145.740 C 50.690,151.659 44.578,165.633 41.656,174.250 C 40.837,176.666 39.309,176.445 33.403,173.058 C 26.265,168.964 19.434,161.051 17.362,154.479 C 15.767,149.419 15.771,148.751 17.427,142.631 C 21.881,126.177 37.179,108.966 55.562,99.728 C 90.734,82.053 138.568,83.555 172.482,103.400 C 181.920,108.923 198.429,125.318 203.853,134.554 C 212.882,149.929 216.190,162.813 216.295,183 C 216.378,198.986 214.492,210.611 209.236,226.500 C 201.548,249.740 190.137,268.036 172.083,286.071 C 151.480,306.652 131.606,317.583 105.940,322.452 C 95.874,324.362 75.896,324.352 66.980,322.434M 91,290.959 C 123.398,285.847 153.239,262.319 170.366,228.380 C 185.464,198.462 189.424,160.771 179.686,139.665 C 171.657,122.262 154.580,111.999 130.585,110.153 C 119.880,109.330 111.712,109.707 112.203,111.002 C 112.366,111.432 116.696,114.584 121.825,118.006 C 126.954,121.428 131.355,124.762 131.606,125.416 C 131.857,126.070 129.730,130.631 126.879,135.552 C 102.619,177.431 60,274.414 60,287.739 C 60,290.525 60.360,290.918 63.250,291.277 C 70.005,292.115 84.744,291.946 91,290.959" stroke="#588BF7" fill="#588BF7" stroke-width="1"/>
  <path id="24" d="M 737.239,310.918 C 725.723,309.381 718.304,300.816 715.961,286.354 C 713.494,271.123 718.895,249.310 730.727,226.722 C 732.680,222.994 733.949,219.619 733.547,219.222 C 731.652,217.349 717.427,234.991 690.992,272 C 671.260,299.625 664.141,309.009 662.415,309.671 C 658.539,311.159 645.456,299.545 641.866,291.430 C 640.168,287.592 640.048,286.249 640.957,281.254 C 644.600,261.225 654.078,236.258 664.467,219.319 C 665.903,216.978 666.612,214.878 666.078,214.548 C 664.443,213.538 631.307,255.023 617.500,275.367 C 599.694,301.603 593.093,310 590.275,310 C 587.670,310 579.942,301.627 577.005,295.623 C 572.564,286.543 571.810,280.926 573.510,269.599 C 576.184,251.784 581.666,233.988 590.920,213.072 C 596.078,201.414 614.146,166.800 617.172,162.778 C 617.172,162.778 618.844,160.556 618.844,160.556 C 618.844,160.556 625.709,162.767 625.709,162.767 C 636.148,166.129 652,177.082 652,180.933 C 652,184.228 641.906,202.503 631.504,218.041 C 620.361,234.686 619.361,236.487 620.778,237.363 C 621.281,237.674 625.914,232.468 631.075,225.796 C 641.805,211.923 658.790,193.818 666.996,187.503 C 682.090,175.888 692.589,173.704 705,179.595 C 713.812,183.778 718,187.441 718,190.965 C 718,192.498 715.276,199.049 711.946,205.523 C 708.604,212.020 706.275,217.675 706.746,218.146 C 707.217,218.617 710.222,215.850 713.455,211.969 C 721.501,202.310 736.413,188.226 743.853,183.257 C 756.626,174.728 766.562,172.984 775.895,177.635 C 781.612,180.484 787,186.755 787,190.561 C 787,193.285 783.368,201.875 770.736,229.023 C 759.001,254.244 754.372,267.278 752.926,279.171 C 751.617,289.938 752.084,290.891 757.834,289.168 C 766.838,286.470 771,288.669 771,296.125 C 771,299.489 770.514,300.128 765.350,303.556 C 755.461,310.120 747.292,312.259 737.239,310.918" stroke="#588BF7" fill="#588BF7" stroke-width="1"/>
  <path id="24" d="M 813.794,322.413 C 807.490,320.474 795.728,308.603 793.487,301.918 C 787.649,284.505 790.255,263.595 803.510,221.500 C 822.689,160.589 853.077,93.540 873.583,66.892 C 879.099,59.724 878.634,59.722 893.500,66.985 C 902.576,71.419 916,80.909 916,82.890 C 916,83.330 912.287,88.378 907.750,94.108 C 878.940,130.490 858.677,170.208 839.940,227.017 C 828.112,262.880 822.893,288.431 822.635,311.747 C 822.481,325.643 822.850,325.199 813.794,322.413" stroke="#588BF7" fill="#588BF7" stroke-width="1"/>
  <path id="22" d="M 843,408.975 C 827.293,407.132 813.680,400.882 803.750,390.955 C 797.437,384.644 797,383.918 797,379.753 C 797,372.961 804.319,364 809.866,364 C 810.931,364 814.645,366.138 818.121,368.750 C 824.143,373.277 824.727,373.494 830.558,373.368 C 854.410,372.854 880.311,351.051 899.897,315 C 902.138,310.875 903.978,307.210 903.986,306.857 C 903.994,306.504 900.513,307.997 896.250,310.174 C 896.250,310.174 888.500,314.132 888.500,314.132 C 888.500,314.132 881,312.577 881,312.577 C 866.419,309.554 853.450,300.461 848.474,289.772 C 843.894,279.934 845.530,263.486 853.477,239.500 C 864.441,206.405 883.849,173.071 899.231,160.912 C 903.744,157.345 904.709,157 910.195,157 C 921.563,157 934.297,161.659 942.036,168.651 C 947.046,173.177 947.058,175.518 942.097,181.153 C 930.069,194.817 910.708,231.547 903.880,253.654 C 902.779,257.218 902.052,260.656 902.265,261.294 C 902.779,262.836 912.210,249.952 919.683,237.500 C 922.984,232 932.116,215.800 939.977,201.500 C 960.205,164.703 959.970,165 968.869,165 C 973.904,165 987.910,167.544 988.944,168.647 C 989.487,169.226 985.783,168.763 979.250,167.434 C 976.653,166.906 976,167.098 976,168.387 C 976,169.629 974.979,170 971.572,170 C 966.116,170 968.042,167.082 941.224,216 C 929.930,236.601 918.744,255.133 913.156,262.500 C 908.031,269.257 894.092,284 892.827,284 C 890.253,284 893.853,267.184 900.536,248 C 907.907,226.838 924.782,195.015 935.934,181.245 C 938.720,177.805 941,174.639 941,174.209 C 941,173.779 938.459,171.754 935.353,169.708 C 928.762,165.368 918.685,162 912.291,162 C 908.061,162 907.398,162.402 901.147,168.750 C 892.167,177.869 884.617,188.841 876.202,205 C 863.694,229.018 854.665,256.551 853.375,274.611 C 852.751,283.341 852.843,283.943 855.578,288.967 C 860.678,298.338 871.006,305.521 883.111,308.117 C 887.443,309.046 888.574,308.905 892.759,306.915 C 899.202,303.851 915.343,287.502 921.799,277.500 C 929.167,266.085 929.594,265.534 930.254,266.602 C 931.026,267.851 920.777,292.828 913.448,307.561 C 910.302,313.886 904.256,324.334 900.011,330.780 C 878.157,363.968 855.790,380.070 831.269,380.267 C 824.143,380.324 823.953,380.258 818.104,375.663 C 814.840,373.098 811.727,371 811.188,371 C 809.319,371 804,378.081 804,380.570 C 804,389.194 822.952,400.884 842.109,404.075 C 863.388,407.620 886.182,398.167 907.070,377.136 C 934.345,349.674 950.227,319.979 970.367,258.790 C 976.316,240.716 986.866,213.889 993.703,199.454 C 996.397,193.766 996.670,193.506 998.311,195.064 C 999.962,196.632 999.756,197.404 994.426,209.610 C 985.485,230.087 981.385,240.820 972.316,267.500 C 962.415,296.625 957.202,309.630 948.321,327.356 C 944.778,334.427 942.019,340.303 942.190,340.415 C 946.838,343.454 967.600,352.567 973.500,354.158 C 985.249,357.326 1007.895,357.340 1020.500,354.187 C 1045.860,347.844 1069.217,329.201 1081.750,305.299 C 1086.680,295.896 1086.791,295.772 1087.482,298.919 C 1087.920,300.914 1089.098,302.543 1090.594,303.225 C 1091.918,303.828 1093,304.692 1093,305.145 C 1093,306.313 1087.326,315.505 1082.597,322 C 1073.083,335.065 1055.044,349.677 1041.500,355.290 C 1029.353,360.324 1020.225,362.233 1005.798,362.756 C 985.052,363.508 967.901,359.723 952.265,350.940 C 949.386,349.323 946.461,348.011 945.765,348.025 C 945.069,348.039 940.730,353.748 936.122,360.712 C 936.122,360.712 927.743,373.374 927.743,373.374 C 927.743,373.374 930.122,375.301 930.122,375.301 C 933.393,377.951 946.052,384.167 954.500,387.272 C 974.266,394.536 992.203,396.923 1012.766,395.025 C 1046.640,391.899 1074.154,378.412 1098.193,353.152 C 1115.018,335.471 1125.959,315.447 1132.014,291.250 C 1132.999,287.315 1135.081,285.704 1136.408,287.852 C 1136.698,288.321 1135.853,292.748 1134.530,297.691 C 1123.394,339.303 1089.981,375.733 1048.500,391.491 C 1038.568,395.264 1021.341,398.658 1007.961,399.479 C 980.631,401.155 950.039,393.581 927.564,379.573 C 923.420,376.990 919.670,374.233 919.230,373.447 C 918.623,372.362 917.176,373.442 913.225,377.930 C 910.362,381.182 904.322,386.802 899.802,390.418 C 881.494,405.066 862.519,411.265 843,408.975" stroke="#C4330C" fill="#C4330C" stroke-width="1"/>
  <path id="24" d="M 361.500,312.072 C 352.713,309.473 347.892,306.719 341.081,300.414 C 324.433,285.001 322.032,260.701 334.138,230.127 C 342.890,208.024 361.495,184.393 379.108,173.009 C 389.865,166.057 397.314,163.574 407.539,163.535 C 416.107,163.502 416.875,163.679 422.271,166.950 C 425.402,168.848 430.273,172.738 433.094,175.595 C 433.094,175.595 438.223,180.789 438.223,180.789 C 438.223,180.789 436.970,191.644 436.970,191.644 C 436.281,197.615 435.391,202.950 434.991,203.500 C 434.591,204.050 433.481,206.975 432.523,210 C 425.633,231.756 408.005,248.217 376.778,262.057 C 376.778,262.057 363.500,267.942 363.500,267.942 C 363.500,267.942 363.199,274.694 363.199,274.694 C 362.855,282.411 364.983,289.385 368.208,291.111 C 371.362,292.799 380.387,291.215 386.796,287.848 C 395.079,283.497 402.221,277.907 413.261,267.131 C 413.261,267.131 423.021,257.605 423.021,257.605 C 423.021,257.605 427.511,262.010 427.511,262.010 C 429.980,264.433 432,267.223 432,268.209 C 432,271.049 406.538,296.061 397.500,302.098 C 388.513,308.102 375.033,313.997 370.500,313.907 C 368.850,313.874 364.800,313.048 361.500,312.072M 377.978,241.515 C 394.472,230.550 410,209.864 410,198.857 C 410,191.779 389.085,207.658 379.088,222.327 C 375.186,228.053 368,243.073 368,245.504 C 368,247.730 369.575,247.101 377.978,241.515" stroke="#588BF7" fill="#588BF7" stroke-width="1"/>
  <path id="25" d="M 822.131,326.658 C 821.518,325.920 821.272,325.061 821.584,324.749 C 821.896,324.437 822.307,318.404 822.498,311.341 C 823.156,286.968 828.406,261.763 840.299,225.871 C 858.667,170.440 879.353,129.883 907.047,95.004 C 916.505,83.093 916.429,83.222 918.865,79.556 C 921.697,83.156 921.583,84.084 917.689,89.173 C 915.868,91.553 911.440,97.325 907.848,102 C 879.669,138.676 857.690,184.258 840.032,242.638 C 830.810,273.128 826.330,298.739 827.225,315.871 C 827.502,321.167 827.527,326.062 827.281,326.750 C 826.689,328.404 823.533,328.348 822.131,326.658" stroke="#D53368" fill="#D53368" stroke-width="1"/>
  <path id="24" d="M 990,395.355 C 983.563,394.758 972.556,392.833 967,391.331 C 954.533,387.961 935.581,379.724 930.122,375.301 C 930.122,375.301 927.743,373.374 927.743,373.374 C 927.743,373.374 936.122,360.712 936.122,360.712 C 940.730,353.748 945.069,348.039 945.765,348.025 C 946.461,348.011 949.386,349.323 952.265,350.940 C 967.901,359.723 985.052,363.508 1005.798,362.756 C 1032.795,361.777 1053.448,352.707 1072.500,333.461 C 1090.192,315.590 1099.498,296.100 1101.977,271.728 C 1105.669,235.433 1090.670,201.980 1060.654,179.559 C 1043.102,166.448 1026.725,161.158 1000.500,160.128 C 1000.500,160.128 984.500,159.500 984.500,159.500 C 984.500,159.500 984.500,92 984.500,92 C 984.500,92 984.500,24.500 984.500,24.500 C 984.500,24.500 1047.500,24.500 1047.500,24.500 C 1047.500,24.500 1110.500,24.500 1110.500,24.500 C 1110.500,24.500 1110.500,40.500 1110.500,40.500 C 1110.500,40.500 1110.500,56.500 1110.500,56.500 C 1110.500,56.500 1065.053,56.760 1065.053,56.760 C 1030.221,56.960 1019.421,57.310 1018.818,58.260 C 1018.385,58.942 1018.023,75.117 1018.015,94.205 C 1018.015,94.205 1018,128.909 1018,128.909 C 1018,128.909 1021.750,129.522 1021.750,129.522 C 1023.812,129.859 1026.850,130.360 1028.500,130.636 C 1035.056,131.732 1051.921,137.416 1059.211,140.987 C 1093.508,157.787 1121.436,191.668 1130.527,227.506 C 1142.244,273.697 1130.547,319.154 1098.193,353.152 C 1078.970,373.352 1058.888,385.203 1032.500,391.920 C 1020.503,394.974 1002.010,396.469 990,395.355" stroke="#588BF7" fill="#588BF7" stroke-width="1"/>
  <path id="25" d="M 768.566,303.312 C 768.173,302.288 768.524,301.286 769.459,300.763 C 771.489,299.627 771.479,293.130 769.443,290.223 C 767.664,287.684 763.923,287.344 757.834,289.168 C 752.084,290.891 751.617,289.938 752.926,279.171 C 754.372,267.278 759.001,254.244 770.736,229.023 C 783.368,201.875 787,193.285 787,190.561 C 787,186.755 781.612,180.484 775.895,177.635 C 766.562,172.984 756.626,174.728 743.853,183.257 C 736.413,188.226 721.501,202.310 713.455,211.969 C 710.222,215.850 707.217,218.617 706.746,218.146 C 706.275,217.675 708.604,212.020 711.946,205.523 C 715.276,199.049 718,192.498 718,190.965 C 718,187.441 713.812,183.778 705,179.595 C 688.692,171.853 674.845,177.779 650.932,202.734 C 645.172,208.745 636.236,219.124 631.075,225.796 C 622.886,236.383 620,239.070 620,236.107 C 620,235.681 625.115,227.641 631.368,218.241 C 643.841,199.490 652.538,183.167 651.721,180.042 C 651.011,177.326 653.335,175.494 654.979,177.475 C 656.472,179.274 655.828,182.333 652.284,190.271 C 650.867,193.445 649.981,196.314 650.314,196.647 C 650.647,196.980 654.199,194.366 658.209,190.838 C 668.281,181.977 671.993,179.366 679.535,175.837 C 685.326,173.127 686.878,172.826 693.362,173.153 C 699.627,173.469 702.009,174.183 710.099,178.173 C 715.287,180.731 720.393,183.778 721.447,184.942 C 723.262,186.948 723.281,187.317 721.792,191.973 C 720.928,194.676 720.456,197.123 720.745,197.412 C 721.034,197.701 724.472,194.969 728.385,191.342 C 740.996,179.653 753.422,172.419 762.673,171.383 C 768.090,170.776 778.770,172.965 782.582,175.462 C 786.047,177.732 790.844,184.654 791.546,188.395 C 792.323,192.539 790.395,197.616 775.936,229.500 C 763.208,257.565 759.115,268.483 758.278,276.596 C 758.278,276.596 757.743,281.783 757.743,281.783 C 757.743,281.783 762.121,281.294 762.121,281.294 C 765.634,280.902 767.069,281.254 769.376,283.074 C 775.502,287.907 777.990,299.067 773.811,302.961 C 771.148,305.442 769.427,305.557 768.566,303.312" stroke="#D53368" fill="#D53368" stroke-width="1"/>
  <path id="18" d="M 736.871,315.929 C 722.748,313.705 713.192,303.813 709.893,288 C 708.810,282.811 709.093,270.094 710.538,259 C 710.538,259 711.125,254.500 711.125,254.500 C 711.125,254.500 707.781,258.163 707.781,258.163 C 705.942,260.178 697.702,271.195 689.469,282.646 C 669.569,310.323 665.639,315 662.279,315 C 652.070,315 635.083,297.320 634.800,286.402 C 634.680,281.749 637.556,267.085 640.617,256.750 C 640.902,255.788 640.763,255 640.309,255 C 638.941,255 627.042,270.508 615.430,287.424 C 604.105,303.922 595.294,314.454 591.921,315.525 C 587.588,316.900 576.147,306.269 571.655,296.692 C 567.383,287.584 566.492,281.246 567.932,270.211 C 571.448,243.263 584.820,208.663 606.808,169.617 C 615.088,154.913 615.845,154.327 623.658,156.559 C 632.531,159.094 643.780,165.345 650.871,171.682 C 650.871,171.682 657.241,177.375 657.241,177.375 C 657.241,177.375 656.693,182.687 656.693,182.687 C 656.391,185.609 656.449,187.984 656.822,187.964 C 657.195,187.944 660.425,185.685 664,182.945 C 678.670,171.701 689.995,168.837 702.511,173.203 C 709.002,175.467 718.645,180.688 717.834,181.499 C 717.639,181.694 713.707,179.981 709.098,177.690 C 702.048,174.186 699.554,173.465 693.388,173.154 C 686.874,172.825 685.332,173.124 679.535,175.837 C 671.993,179.366 668.281,181.977 658.209,190.838 C 654.199,194.366 650.647,196.980 650.314,196.647 C 649.981,196.314 650.867,193.445 652.284,190.271 C 655.828,182.333 656.472,179.274 654.979,177.475 C 654.063,176.371 653.390,176.262 652.427,177.061 C 651.435,177.885 649.512,176.915 644.460,173.043 C 636.671,167.073 632.647,164.911 624.663,162.409 C 624.663,162.409 618.826,160.580 618.826,160.580 C 618.826,160.580 617.163,162.790 617.163,162.790 C 614.144,166.802 596.071,201.431 590.920,213.072 C 581.666,233.988 576.184,251.784 573.510,269.599 C 571.810,280.926 572.564,286.543 577.005,295.623 C 579.942,301.627 587.670,310 590.275,310 C 593.093,310 599.694,301.603 617.500,275.367 C 631.307,255.023 664.443,213.538 666.078,214.548 C 666.612,214.878 665.903,216.978 664.467,219.319 C 654.078,236.258 644.600,261.225 640.957,281.254 C 640.048,286.249 640.168,287.592 641.866,291.430 C 645.456,299.545 658.539,311.159 662.415,309.671 C 664.141,309.009 671.260,299.625 690.992,272 C 717.427,234.991 731.652,217.349 733.547,219.222 C 733.949,219.619 732.680,222.994 730.727,226.722 C 715.550,255.696 711.399,282.013 719.487,297.974 C 724.066,307.011 731.241,311.136 742.383,311.141 C 750.230,311.144 755.849,309.494 763.017,305.084 C 767.492,302.330 767.793,302.277 769.249,303.977 C 770.669,305.636 770.340,306.024 764.639,309.413 C 755.287,314.972 745.449,317.280 736.871,315.929" stroke="#C53330" fill="#C53330" stroke-width="1"/>
  <path id="22" d="M 553,305.186 C 553,304.710 554.125,303.808 555.500,303.182 C 558.918,301.625 558.833,297.776 555.330,295.481 C 553.261,294.126 552.260,293.981 550.883,294.841 C 549.428,295.750 548.738,295.484 547.079,293.374 C 544.279,289.814 543.662,285.493 544.260,273.665 C 545.046,258.128 552.299,233.350 563.126,209.219 C 565.582,203.746 566.245,202.958 567.511,204.009 C 568.769,205.053 569.310,204.553 570.960,200.823 C 573.386,195.338 572.806,192.624 568.165,187.750 C 565.648,185.107 565.070,184 566.208,184 C 568.210,184 572.789,189.313 573.612,192.590 C 574.565,196.388 573.647,199.573 567.730,213 C 557.885,235.342 551.998,254.425 550.007,270.445 C 548.459,282.902 549.317,286.533 555.155,292.219 C 559.944,296.884 560.591,298.297 559.379,301.455 C 558.694,303.239 553,306.570 553,305.186" stroke="#C4330C" fill="#C4330C" stroke-width="1"/>
  <path id="25" d="M 363.217,317.551 C 349.590,314.251 335.004,303.778 328.503,292.623 C 321.046,279.829 319.712,258.647 325.487,244.750 C 326.509,242.291 323.798,242.461 321.500,245 C 318.853,247.925 315.160,247.461 308.977,243.425 C 302.029,238.890 293.185,230.272 292.797,227.659 C 292.285,224.213 290.624,224.787 283.322,230.934 C 275.429,237.578 267.157,247.108 262.272,255.186 C 257.506,263.067 251.367,280.195 246.777,298.410 C 244.547,307.259 242.280,315.062 241.739,315.750 C 237.494,321.143 212.600,308.999 206.474,298.546 C 206.474,298.546 203.905,294.163 203.905,294.163 C 203.905,294.163 206.546,282.331 206.546,282.331 C 211.936,258.176 223.630,220.559 233.668,195.086 C 241.709,174.681 249.707,160.420 255.312,156.494 C 257.624,154.874 263,154.449 263,155.885 C 263,156.372 265.334,157.533 268.186,158.466 C 277.437,161.492 287.018,166.976 292.747,172.525 C 297.069,176.711 298.655,177.702 299.676,176.854 C 300.404,176.249 301,174.999 301,174.074 C 301,172.250 306.165,166.924 309.684,165.120 C 315.640,162.066 328.946,166.083 335.415,172.888 C 335.415,172.888 338.330,175.954 338.330,175.954 C 338.330,175.954 336.496,182.227 336.496,182.227 C 334.332,189.628 333.707,190.557 332.150,188.681 C 331.254,187.601 331.368,186.091 332.645,182.136 C 334.234,177.215 334.225,176.905 332.403,174.891 C 327.488,169.457 315.249,167.036 310.281,170.516 C 309.091,171.350 304.828,176.410 300.808,181.762 C 296.788,187.114 289.128,195.994 283.785,201.496 C 275.318,210.214 274.065,211.176 274.035,208.976 C 273.994,206.020 280.848,193.632 287.406,184.807 C 289.933,181.407 292,178.055 292,177.358 C 292,173.977 273.721,163.492 263.607,161.071 C 258.883,159.940 258.613,159.996 255.776,162.700 C 254.160,164.240 251.228,168.370 249.261,171.878 C 240.773,187.015 221.701,241.176 214.177,271.511 C 208.004,296.399 208.002,294.143 214.202,300.273 C 220.189,306.193 231.164,312 236.365,312 C 239.643,312 239.799,311.827 240.456,307.443 C 240.832,304.937 243.135,295.824 245.575,287.193 C 251.056,267.802 259.134,250.912 268.049,240.204 C 273.975,233.086 289.256,220 291.642,220 C 292.299,220 293.748,221.462 294.861,223.250 C 299.093,230.045 313.308,242 317.155,242 C 319.212,242 327.375,232.966 330.164,227.603 C 331.450,225.131 331.989,222.694 331.638,220.940 C 331,217.750 332.954,215.354 334.739,217.139 C 335.527,217.927 336.280,217.359 337.453,215.091 C 338.346,213.364 338.948,211.392 338.791,210.709 C 338.261,208.401 350.317,192.561 359.939,182.924 C 374.816,168.023 387.982,160.343 402.863,157.886 C 409.017,156.870 410.071,156.928 411.507,158.364 C 412.407,159.264 413.799,160 414.600,160 C 419.531,160 434.999,170.977 440.036,178.051 C 441.960,180.754 442.015,181.458 440.941,189.714 C 439.726,199.049 439.211,200.367 437.252,199.156 C 436.288,198.561 436.267,196.489 437.153,189.624 C 437.153,189.624 438.286,180.852 438.286,180.852 C 438.286,180.852 433.125,175.627 433.125,175.627 C 430.287,172.753 425.402,168.848 422.271,166.950 C 416.875,163.679 416.107,163.502 407.539,163.535 C 399.926,163.564 397.431,164.016 391.725,166.401 C 368.651,176.045 345.336,201.845 334.138,230.127 C 322.032,260.701 324.433,285.001 341.081,300.414 C 348.039,306.856 352.744,309.496 361.971,312.135 C 370.666,314.622 372.163,314.512 381.500,310.704 C 393.956,305.625 404.058,298.208 418.806,283.320 C 430.910,271.101 432.085,269.599 431.806,266.694 C 431.550,264.031 431.874,263.446 433.750,263.180 C 435.243,262.968 436,262.176 436,260.824 C 436,257.186 439.123,244.704 442.212,236 C 445.649,226.314 453.451,210.162 455.463,208.568 C 456.204,207.980 460.205,202.958 464.353,197.407 C 478.251,178.807 493.616,166.933 508.185,163.534 C 514.237,162.122 514.655,162.153 519.519,164.380 C 522.566,165.775 527.101,169.310 530.951,173.292 C 536.144,178.663 537.661,179.716 539.100,178.946 C 542.089,177.346 547.806,177.885 555.595,180.500 C 559.691,181.875 563.783,183 564.688,183 C 565.593,183 566.024,183.309 565.646,183.687 C 565.268,184.065 566.483,185.977 568.347,187.937 C 572.817,192.638 573.366,195.385 570.932,200.887 C 569.098,205.033 568.822,205.251 567.319,203.748 C 565.816,202.245 565.818,201.927 567.346,199.595 C 569.806,195.840 569.402,194.073 565.160,190.038 C 561.369,186.432 553.152,182.828 545.863,181.576 C 542.461,180.992 542.082,181.195 539.986,184.726 C 537.916,188.214 537.661,188.355 536.623,186.589 C 533.850,181.871 526.963,174.182 522.442,170.755 C 518.225,167.559 516.747,167.009 512.366,167.005 C 504.035,166.997 493.034,173.128 481.365,184.283 C 468.427,196.651 460.257,207.831 451.972,224.500 C 441.359,245.852 437.501,263.314 439.929,279.002 C 442.617,296.372 453.447,309 465.656,309 C 474.679,309 491.725,296.339 502.035,281.978 C 510.394,270.335 509.677,270.324 509.651,282.092 C 509.624,294.335 511.405,299.514 517.475,304.844 C 521.256,308.164 521.347,308.186 529.892,307.831 C 537.133,307.531 539.651,306.936 545.750,304.089 C 553.069,300.672 554.451,298.918 551.250,297.112 C 549.834,296.313 549.743,295.880 550.770,294.843 C 551.802,293.801 552.551,293.869 554.770,295.208 C 558.373,297.382 558.929,301.433 555.851,303.080 C 554.603,303.748 552.889,305.064 552.041,306.006 C 549.961,308.316 541.189,311.848 534.423,313.099 C 519.159,315.921 506,305.967 506,291.599 C 506,288.585 505.628,285.889 505.174,285.608 C 504.720,285.327 502.214,287.663 499.605,290.799 C 494.880,296.476 483.312,307 481.796,307 C 481.358,307 481,307.620 481,308.377 C 481,309.134 478.667,310.757 475.816,311.984 C 466.076,316.174 455.589,313.631 446.891,304.968 C 440.117,298.222 435.518,288.192 435.474,280.073 C 435.435,272.878 434.101,271.391 431.393,275.523 C 430.095,277.504 429.961,278.357 430.860,278.913 C 431.656,279.405 429.101,282.509 423.281,288.118 C 408.032,302.814 393.581,312.497 380.282,316.928 C 373.245,319.273 370.711,319.365 363.217,317.551" stroke="#D53368" fill="#D53368" stroke-width="1"/>
  <path id="24" d="M 457.290,306.914 C 445.098,300.879 437.701,283.300 439.411,264.424 C 441.051,246.326 452.282,219.312 465.387,201.943 C 480.710,181.635 500.398,166.993 512.366,167.005 C 516.747,167.009 518.225,167.559 522.442,170.755 C 526.963,174.182 533.850,181.871 536.623,186.589 C 537.661,188.355 537.916,188.214 539.986,184.726 C 542.080,181.198 542.463,180.992 545.863,181.569 C 551.672,182.555 560.221,185.940 563.818,188.679 C 569.330,192.876 569.685,194.855 566.238,202.155 C 561.207,212.808 552.312,235.987 549.603,245.500 C 545.465,260.033 544,268.554 544,278.098 C 544,288.451 545.418,292.771 549.908,296.090 C 551.609,297.347 553,298.900 553,299.540 C 553,300.180 549.737,302.227 545.750,304.089 C 539.651,306.936 537.133,307.531 529.892,307.831 C 521.347,308.186 521.256,308.164 517.475,304.844 C 511.405,299.514 509.624,294.335 509.651,282.092 C 509.677,270.324 510.394,270.335 502.035,281.978 C 495.719,290.776 483.138,302.275 475.840,305.922 C 468.510,309.585 463.253,309.866 457.290,306.914M 479.816,280.051 C 489.076,272.731 504.147,251.388 518.999,224.558 C 528.834,206.792 532.549,199.215 531.796,198.462 C 530.939,197.605 520.175,203.231 514.420,207.544 C 494.876,222.192 478.036,247.694 473.543,269.446 C 471.577,278.965 471.530,284 473.410,284 C 474.186,284 477.069,282.223 479.816,280.051" stroke="#588BF7" fill="#588BF7" stroke-width="1"/>
  <path id="22" d="M 63.250,291.277 C 60.360,290.918 60,290.525 60,287.739 C 60,275.968 96.200,191.633 120.093,147.739 C 128.767,131.804 128.875,131.652 130.535,133.029 C 131.480,133.813 132.341,133.329 133.902,131.137 C 135.056,129.517 136,127.306 136,126.223 C 136,124.462 131.428,119.738 124.850,114.701 C 122.540,112.932 122.628,112.911 130,113.519 C 134.125,113.859 139.383,114.552 141.685,115.058 C 147.544,116.347 157,119.984 157,120.948 C 157,121.390 154.188,120.746 150.750,119.517 C 143.130,116.792 137.242,115.800 136.436,117.104 C 136.106,117.639 137.437,119.848 139.394,122.014 C 143.509,126.569 143.635,125.927 136.179,138.400 C 115.542,172.921 68.910,278.113 71.385,284.562 C 72.606,287.745 95.584,285.359 108.196,280.740 C 139.266,269.360 165.666,238.603 175.175,202.708 C 177.315,194.631 177.456,194.403 179.684,195.435 C 180.949,196.021 181.988,196.893 181.992,197.373 C 181.996,197.853 180.418,202.974 178.484,208.753 C 167.260,242.295 145.894,268.293 118.390,281.871 C 108.928,286.543 99.801,289.570 91,290.959 C 84.744,291.946 70.005,292.115 63.250,291.277" stroke="#C4330C" fill="#C4330C" stroke-width="1"/>
  <path id="22" d="M 811.114,326.866 C 805.611,325.124 803.772,323.853 797.808,317.672 C 786.644,306.102 784,298.986 784,280.502 C 784,259.243 793.079,225.678 812.537,175 C 831.446,125.753 851.177,86.004 867.234,64.809 C 873.916,55.989 875.956,55.178 884.717,57.867 C 892.768,60.338 906.634,68.001 912.391,73.162 C 916.049,76.441 916.335,77.012 915,78.359 C 913.663,79.708 912.850,79.374 907.500,75.280 C 901.669,70.817 886.183,62.799 880.869,61.491 C 878.536,60.917 877.709,61.529 873.583,66.892 C 853.077,93.540 822.689,160.589 803.510,221.500 C 792.643,256.012 789.305,274.032 791.002,289.014 C 792.380,301.182 794.138,305.403 800.754,312.429 C 808.055,320.182 810.325,321.706 816.715,323.136 C 819.583,323.778 821.714,324.654 821.473,328.944 C 819.288,328.913 814.626,327.978 811.114,326.866" stroke="#C4330C" fill="#C4330C" stroke-width="1"/>
  <path id="22" d="M 322.578,249.126 C 322.195,248.506 320.446,247.939 318.691,247.864 C 316.524,247.772 316.189,247.593 317.646,247.308 C 318.826,247.077 320.583,246.013 321.551,244.944 C 322.519,243.875 323.915,243 324.655,243 C 326.312,243 326.311,243.030 324.637,247.012 C 323.820,248.955 322.995,249.801 322.578,249.126" stroke="#C4330C" fill="#C4330C" stroke-width="1"/>
  <path id="25" d="M 998.014,195.030 C 996.806,194.266 996.741,193.568 997.669,191.295 C 1001.859,181.038 1001.789,182.047 998.500,179.409 C 994.288,176.031 987.554,173.010 981.317,171.702 C 977.143,170.827 976,170.177 976,168.680 C 976,167.061 976.492,166.871 979.250,167.424 C 981.037,167.782 984.525,168.425 987,168.852 C 989.475,169.279 993.075,170.436 995,171.424 C 999.226,173.593 1006,179.911 1006,181.683 C 1006,183.425 1000.787,196.004 1000.073,195.985 C 999.758,195.977 998.831,195.547 998.014,195.030" stroke="#D53368" fill="#D53368" stroke-width="1"/>
  <path id="22" d="M 481,308 C 481,307.450 481.358,307 481.796,307 C 483.312,307 494.880,296.476 499.605,290.799 C 502.214,287.663 504.720,285.327 505.174,285.608 C 505.628,285.889 505.964,288.454 503.133,291 C 502.748,291 499.972,293.507 496.966,296.571 C 491.793,301.843 482.954,309 481.616,309 C 481.277,309 481,308.550 481,308" stroke="#C4330C" fill="#C4330C" stroke-width="1"/>
  <path id="18" d="M 472,280.458 C 472,278.510 472.694,273.554 473.543,269.446 C 478.036,247.694 494.876,222.192 514.420,207.544 C 520.175,203.231 530.939,197.605 531.796,198.462 C 532.549,199.215 528.834,206.792 518.999,224.558 C 504.147,251.388 489.076,272.731 479.816,280.051 C 473.530,285.020 472,285.100 472,280.458M 496.741,250.792 C 505.628,237.711 518.319,215.455 517.792,213.875 C 517.249,212.245 504.095,224.770 498.417,232.323 C 489.491,244.197 480.924,261.938 481.040,268.310 C 481.074,270.191 481.691,269.835 485.414,265.792 C 487.798,263.202 492.895,256.452 496.741,250.792" stroke="#C53330" fill="#C53330" stroke-width="1"/>
  <path id="22" d="M 122,323.108 C 122,322.618 123.238,321.909 124.750,321.534 C 129.723,320.300 147.347,311.325 155.500,305.875 C 165.366,299.280 183.573,281.220 191.165,270.500 C 216.639,234.529 226.623,188.528 216.521,153.668 C 210.903,134.280 199.733,118.625 181.988,105.268 C 176.281,100.972 158.521,91.670 153.730,90.468 C 151.156,89.822 149.861,88 151.977,88 C 154.083,88 166.883,93.303 174,97.124 C 198.447,110.249 214.833,130.150 222.242,155.712 C 224.271,162.712 224.498,165.626 224.477,184.500 C 224.455,203.877 224.248,206.315 221.796,216.044 C 217.252,234.071 211.513,247.179 201.239,263 C 183.046,291.016 159.159,310.740 130.227,321.637 C 123.387,324.213 122,324.461 122,323.108" stroke="#C4330C" fill="#C4330C" stroke-width="1"/>
  <path id="22" d="M 455,208.711 C 455,206.873 467.990,190.081 474.806,183.109 C 487.204,170.427 503.976,161 514.139,161 C 518.636,161 525.929,165.256 531.923,171.376 C 537.129,176.692 537.513,176.891 541.475,176.348 C 546.174,175.704 556.103,177.950 561.762,180.938 C 566.904,183.653 564.473,183.480 555.595,180.500 C 547.806,177.885 542.089,177.346 539.100,178.946 C 537.661,179.716 536.144,178.663 530.951,173.292 C 527.101,169.310 522.566,165.775 519.519,164.380 C 514.655,162.153 514.237,162.122 508.185,163.534 C 493.625,166.931 478.279,178.786 464.338,197.407 C 456.088,208.426 455,209.743 455,208.711" stroke="#C4330C" fill="#C4330C" stroke-width="1"/>
  <path id="22" d="M 368,245.504 C 368,243.073 375.186,228.053 379.088,222.327 C 386.583,211.330 400.362,199.163 407.250,197.462 C 409.584,196.885 410,197.097 410,198.857 C 410,209.864 394.472,230.550 377.978,241.515 C 369.575,247.101 368,247.730 368,245.504M 390.899,223.463 C 395.093,218.687 399.422,212.089 398.782,211.449 C 398.049,210.716 387.276,222.566 385.431,226.134 C 383.942,229.013 383.957,229.093 385.802,228.106 C 386.860,227.540 389.154,225.451 390.899,223.463" stroke="#C4330C" fill="#C4330C" stroke-width="1"/>
  <path id="22" d="M 330.283,216.417 C 329.300,214.008 329.432,195.612 330.464,191.225 C 331.059,188.697 331.529,188.194 332.528,189.023 C 334.082,190.313 334.163,190.174 336.494,182.220 C 336.494,182.220 338.335,175.941 338.335,175.941 C 338.335,175.941 335.080,172.583 335.080,172.583 C 333.290,170.736 330.178,168.551 328.163,167.726 C 326.148,166.901 323.375,165.756 322.500,164.077 C 326.906,163.992 335.042,168.145 338.757,172.376 C 340.540,174.407 341.994,176.392 341.987,176.785 C 341.980,177.178 341.054,180.425 339.929,184 C 337.312,192.317 336.228,206.189 337.945,209.398 C 338.979,211.330 338.909,212.276 337.534,214.935 C 336.294,217.333 335.557,217.878 334.614,217.095 C 333.729,216.360 333.011,216.389 332.209,217.191 C 331.351,218.049 330.870,217.855 330.283,216.417" stroke="#C4330C" fill="#C4330C" stroke-width="1"/>
  <path id="25" d="M 1089.790,302.942 C 1086.993,301.312 1086.679,296.134 1088.891,288.151 C 1093.622,271.078 1093.645,250.816 1088.951,234.008 C 1080.348,203.201 1053.897,177.168 1021.826,167.942 C 1016.115,166.299 1010.752,165.730 997.500,165.364 C 988.150,165.106 979.487,164.684 978.250,164.428 C 978.250,164.428 976,163.962 976,163.962 C 976,163.962 976,93.504 976,93.504 C 976,93.504 976,23.046 976,23.046 C 976,23.046 978.706,21.273 978.706,21.273 C 981.227,19.621 985.885,19.500 1046.786,19.500 C 1110.346,19.500 1112.200,19.554 1113.580,21.441 C 1114.668,22.929 1115,27.174 1115,39.626 C 1115,57.161 1114.409,60.271 1110.827,61.570 C 1109.547,62.034 1089.150,62.658 1065.500,62.957 C 1065.500,62.957 1022.500,63.500 1022.500,63.500 C 1022.500,63.500 1022.235,92.787 1022.235,92.787 C 1022.079,109.962 1022.363,122.810 1022.921,123.853 C 1023.558,125.043 1026.064,126.034 1030.501,126.852 C 1046.738,129.844 1065.984,138.243 1081,148.891 C 1090.160,155.386 1108.533,174.057 1114.839,183.278 C 1132.287,208.792 1139.976,235.863 1138.620,267 C 1137.802,285.782 1137.400,287.917 1134.814,287.241 C 1133.246,286.831 1132.948,286.162 1133.419,284.110 C 1133.748,282.675 1134.296,276.325 1134.635,270 C 1135.774,248.743 1131.948,226.739 1123.935,208.469 C 1111.591,180.322 1086.847,154.525 1059.211,140.987 C 1051.278,137.101 1034.580,131.568 1027.500,130.480 C 1025.300,130.142 1022.263,129.635 1020.750,129.353 C 1020.750,129.353 1018,128.841 1018,128.841 C 1018,128.841 1018.015,94.171 1018.015,94.171 C 1018.023,75.102 1018.385,58.942 1018.818,58.260 C 1019.421,57.310 1030.221,56.960 1065.053,56.760 C 1065.053,56.760 1110.500,56.500 1110.500,56.500 C 1110.500,56.500 1110.500,40.500 1110.500,40.500 C 1110.500,40.500 1110.500,24.500 1110.500,24.500 C 1110.500,24.500 1047.500,24.500 1047.500,24.500 C 1047.500,24.500 984.500,24.500 984.500,24.500 C 984.500,24.500 984.500,92 984.500,92 C 984.500,92 984.500,159.500 984.500,159.500 C 984.500,159.500 1000.500,160.128 1000.500,160.128 C 1026.725,161.158 1043.102,166.448 1060.654,179.559 C 1098.381,207.739 1112.285,254.745 1095.871,298.616 C 1093.832,304.065 1092.879,304.743 1089.790,302.942" stroke="#D53368" fill="#D53368" stroke-width="1"/>
  <path id="22" d="M 39.500,181 C 37.699,180.226 37.762,180.133 40.128,180.070 C 43.483,179.980 44.661,178.504 46.609,171.945 C 48.941,164.091 55.314,150.797 60.393,143.190 C 65.807,135.081 74,126.733 74,129.324 C 74,132.429 67.846,147.122 66.296,147.717 C 64.323,148.474 56.494,164.624 53.935,173.218 C 52.708,177.339 51.185,180.366 50.028,180.985 C 47.770,182.194 42.296,182.201 39.500,181" stroke="#C4330C" fill="#C4330C" stroke-width="1"/>
  <path id="22" d="M 238.905,317.213 C 240.228,316.796 241.693,315.789 242.161,314.977 C 242.629,314.165 244.777,306.465 246.937,297.866 C 251.402,280.089 257.535,263.020 262.272,255.186 C 264.047,252.250 267.916,246.934 270.868,243.373 C 276.838,236.172 289.830,224.776 291.454,225.317 C 293.125,225.873 293.313,229 291.675,229 C 289.424,229 275.437,242.528 270.421,249.558 C 262.705,260.371 257.659,273.279 250.930,299.420 C 248.818,307.626 246.475,314.953 245.725,315.703 C 244.975,316.453 242.593,317.270 240.431,317.519 C 237.724,317.830 237.249,317.735 238.905,317.213" stroke="#C4330C" fill="#C4330C" stroke-width="1"/>
  <path id="22" d="M 434.090,279.844 C 434.027,278.695 433.387,278.347 432,278.710 C 429.474,279.371 429.447,277.899 431.929,274.861 C 434.633,271.552 436.499,273.435 435.154,278.114 C 434.618,279.976 434.140,280.755 434.090,279.844" stroke="#C4330C" fill="#C4330C" stroke-width="1"/>
  <path id="22" d="M 367.181,290.181 C 364.252,287.252 362.813,281.509 363.182,274.221 C 363.182,274.221 363.500,267.942 363.500,267.942 C 363.500,267.942 376.778,262.057 376.778,262.057 C 408.008,248.216 425.672,231.718 432.513,210 C 433.466,206.975 434.641,204.072 437.701,199.206 C 439.503,199.517 440.014,197.680 441.455,185.722 C 441.455,185.722 442.151,179.944 442.151,179.944 C 442.151,179.944 435.313,173.107 435.313,173.107 C 428.773,166.567 420.131,161.163 413.750,159.625 C 412.237,159.260 411,158.561 411,158.071 C 411,156.870 419.529,159.199 424.569,161.776 C 429.474,164.284 435.203,168.984 440.462,174.817 C 444.124,178.878 444.345,179.485 444.192,185.041 C 443.983,192.611 440.792,207.235 437.654,215.004 C 429.224,235.875 412.488,251.669 385.032,264.661 C 378.690,267.662 372.825,270.489 372,270.943 C 370.149,271.961 370.157,281.279 372.011,283.513 C 373.905,285.795 378.886,285.290 385.500,282.145 C 393.099,278.531 399.994,273.144 412.110,261.353 C 422.879,250.872 424.440,250.320 429.956,255.035 C 431.857,256.660 433.783,257.617 434.237,257.163 C 434.691,256.709 435.948,253.449 437.031,249.919 C 439.085,243.222 439.046,244.870 436.879,256.250 C 435.879,261.501 435.208,263 433.856,263 C 432.900,263 431.815,263.491 431.444,264.091 C 431.025,264.768 429.312,263.758 426.922,261.424 C 426.922,261.424 423.074,257.667 423.074,257.667 C 423.074,257.667 412.281,268.095 412.281,268.095 C 401.689,278.328 390.674,286.567 383.678,289.490 C 381.736,290.301 377.695,291.254 374.697,291.606 C 370.012,292.157 368.957,291.957 367.181,290.181" stroke="#C4330C" fill="#C4330C" stroke-width="1"/>
  <path id="25" d="M 178.383,194.556 C 178.078,193.762 178.317,189.962 178.914,186.114 C 180.527,175.715 180.277,157.862 178.416,150.644 C 175.336,138.699 171.301,132.958 158.468,122.262 C 152.627,117.394 136.776,112.971 124.850,114.795 C 130.830,119.135 136,124.433 136,126.223 C 136,127.306 135.056,129.517 133.902,131.137 C 127.243,138.595 131.929,124.465 131.651,125.533 C 131.376,124.815 126.954,121.428 121.825,118.006 C 116.696,114.584 112.366,111.432 112.203,111.002 C 111.712,109.707 119.880,109.330 130.585,110.153 C 165.962,112.874 184.917,132.919 184.983,167.678 C 184.999,176.087 183.637,189.989 182.381,194.250 C 181.757,196.365 179.154,196.564 178.383,194.556" stroke="#D53368" fill="#D53368" stroke-width="1"/>
  <path id="22" d="M 292.284,172.369 C 286.929,166.919 277.636,161.557 268.186,158.466 C 265.334,157.533 263,156.342 263,155.818 C 263,155.294 263.788,155.099 264.750,155.385 C 265.712,155.671 267.850,156.219 269.500,156.602 C 275.088,157.899 288.473,164.664 293.721,168.843 C 296.592,171.129 299.405,173 299.971,173 C 301.375,173 301.270,175.330 299.800,176.800 C 298.193,178.407 298.247,178.438 292.284,172.369" stroke="#C4330C" fill="#C4330C" stroke-width="1"/>
  <path id="18" d="M 720.723,197.389 C 720.422,197.088 720.869,194.807 721.716,192.320 C 722.716,189.385 723.529,188.238 724.032,189.052 C 724.626,190.012 725.378,189.860 727.240,188.403 C 745.050,174.464 752.174,170.842 763,170.215 C 768.494,169.897 771.436,170.207 774,172.237 C 772.075,171.832 767.800,171.522 764.500,171.549 C 754.667,171.629 742.396,178.355 728.385,191.342 C 724.472,194.969 721.024,197.690 720.723,197.389" stroke="#C53330" fill="#C53330" stroke-width="1"/>
</svg>
